<svg width="1920" height="2000" viewBox="0 0 1920 2000" fill="none" xmlns="http://www.w3.org/2000/svg">
<g clip-path="url(#clip0_275_639)">
<mask id="mask0_275_639" style="mask-type:luminance" maskUnits="userSpaceOnUse" x="0" y="0" width="1920" height="2000">
<path d="M1920 0H0V2000H1920V0Z" fill="white"/>
</mask>
<g mask="url(#mask0_275_639)">
<path d="M1920 0H0V2000H1920V0Z" fill="#15232A"/>
<g filter="url(#filter0_f_275_639)">
<path d="M1381.74 1568.38C1616.47 1678.09 1895.97 1576.13 2006.03 1340.65C2116.09 1105.18 2015.02 825.35 1780.3 715.643C1545.57 605.935 1266.07 707.89 1156.01 943.366C1045.95 1178.84 1147.02 1458.67 1381.74 1568.38Z" fill="url(#paint0_linear_275_639)"/>
</g>
<g filter="url(#filter1_f_275_639)">
<path d="M703 585C827.264 585 928 484.264 928 360C928 235.736 827.264 135 703 135C578.736 135 478 235.736 478 360C478 484.264 578.736 585 703 585Z" fill="url(#paint1_linear_275_639)" fill-opacity="0.5"/>
</g>
</g>
</g>
<defs>
<filter id="filter0_f_275_639" x="911.5" y="471.527" width="1339.04" height="1340.97" filterUnits="userSpaceOnUse" color-interpolation-filters="sRGB">
<feFlood flood-opacity="0" result="BackgroundImageFix"/>
<feBlend mode="normal" in="SourceGraphic" in2="BackgroundImageFix" result="shape"/>
<feGaussianBlur stdDeviation="100" result="effect1_foregroundBlur_275_639"/>
</filter>
<filter id="filter1_f_275_639" x="408" y="65" width="590" height="590" filterUnits="userSpaceOnUse" color-interpolation-filters="sRGB">
<feFlood flood-opacity="0" result="BackgroundImageFix"/>
<feBlend mode="normal" in="SourceGraphic" in2="BackgroundImageFix" result="shape"/>
<feGaussianBlur stdDeviation="35" result="effect1_foregroundBlur_275_639"/>
</filter>
<linearGradient id="paint0_linear_275_639" x1="1260.6" y1="719.594" x2="1903.65" y2="1562.74" gradientUnits="userSpaceOnUse">
<stop offset="0.0589996" stop-color="#5BEB4D"/>
<stop offset="0.18" stop-color="#008EDD"/>
<stop offset="0.304" stop-color="#1DB4AA"/>
<stop offset="0.459" stop-color="#AF7BF2"/>
<stop offset="0.684" stop-color="#4DF455"/>
</linearGradient>
<linearGradient id="paint1_linear_275_639" x1="703" y1="135" x2="703" y2="585" gradientUnits="userSpaceOnUse">
<stop stop-color="#3FFF2F"/>
<stop offset="0.725" stop-color="#236E7F"/>
<stop offset="1" stop-color="#0A2041"/>
</linearGradient>
<clipPath id="clip0_275_639">
<rect width="1920" height="2000" fill="white"/>
</clipPath>
</defs>
</svg>
