<svg width="44" height="44" viewBox="0 0 44 44" fill="none" xmlns="http://www.w3.org/2000/svg">
    <rect width="28" height="25" transform="translate(8 8)" fill="white"/>
    <path d="M35.0254 4.3999H8.77539C6.36914 4.3999 4.40039 6.36865 4.40039 8.7749V35.0249C4.40039 37.4312 6.36914 39.3999 8.77539 39.3999H35.0254C37.4316 39.3999 39.4004 37.4312 39.4004 35.0249V8.7749C39.4004 6.36865 37.4316 4.3999 35.0254 4.3999ZM28.5963 32.3758L21.9004 25.6821L15.2045 32.3758L11.4223 28.5958L18.1182 21.8999L11.4245 15.204L15.2066 11.4218L21.9004 18.1177L28.592 11.4218L32.3741 15.204L25.6826 21.8999L32.3763 28.5958L28.5963 32.3758Z" fill="#FF5555"/>
</svg>
