<svg width="43" height="44" viewBox="0 0 43 44" fill="none" xmlns="http://www.w3.org/2000/svg">
    <path fill-rule="evenodd" clip-rule="evenodd" d="M4.68473 0H35.0956L42.9022 7.49061V44H4.68855V40.3333H39.0809V12.8333H29.5274V3.66667H8.5061V16.5H4.68473V0ZM33.3488 3.66667V9.16667H39.0809V9.00939L33.5127 3.66667H33.3488ZM7.71849 25.6667H0.867188V22H12.3313V26.4261L5.47999 33H12.3313V36.6667H0.867188V32.2406L7.71849 25.6667ZM16.1527 36.6667V22H19.974V36.6667H16.1527ZM23.7954 22H31.4381C32.9584 22 34.4163 22.5795 35.4913 23.6109C36.5663 24.6424 37.1702 26.0413 37.1702 27.5C37.1702 28.9587 36.5663 30.3576 35.4913 31.3891C34.4163 32.4205 32.9584 33 31.4381 33H27.6168V36.6667H23.7954V22ZM27.6168 25.6667V29.3333H31.4381C31.9449 29.3333 32.4309 29.1402 32.7892 28.7964C33.1475 28.4525 33.3488 27.9862 33.3488 27.5C33.3488 27.0138 33.1475 26.5475 32.7892 26.2036C32.4309 25.8598 31.9449 25.6667 31.4381 25.6667H27.6168Z" fill="#15232A"/>
</svg>
