<svg width="75" height="65" viewBox="0 0 75 65" fill="none" xmlns="http://www.w3.org/2000/svg">
<path fill-rule="evenodd" clip-rule="evenodd" d="M19.6847 0H50.0956L57.9022 7.49061V44H19.6886V40.3333H54.0809V12.8333H44.5274V3.66667H23.5061V16.5H19.6847V0ZM48.3488 3.66667V9.16667H54.0809V9.00939L48.5127 3.66667H48.3488ZM22.7185 25.6667H15.8672V22H27.3313V26.4261L20.48 33H27.3313V36.6667H15.8672V32.2406L22.7185 25.6667ZM31.1527 36.6667V22H34.974V36.6667H31.1527ZM38.7954 22H46.4381C47.9584 22 49.4163 22.5795 50.4913 23.6109C51.5663 24.6424 52.1702 26.0413 52.1702 27.5C52.1702 28.9587 51.5663 30.3576 50.4913 31.3891C49.4163 32.4205 47.9584 33 46.4381 33H42.6168V36.6667H38.7954V22ZM42.6168 25.6667V29.3333H46.4381C46.9449 29.3333 47.4309 29.1402 47.7892 28.7964C48.1475 28.4525 48.3488 27.9862 48.3488 27.5C48.3488 27.0138 48.1475 26.5475 47.7892 26.2036C47.4309 25.8598 46.9449 25.6667 46.4381 25.6667H42.6168Z" fill="#15232A"/>
<path d="M9.60449 54.5156V55.7422H3.44824V54.5156H9.60449ZM3.68262 49.625V61H2.1748V49.625H3.68262ZM10.917 49.625V61H9.41699V49.625H10.917ZM18.3623 59.5547V55.2031C18.3623 54.8698 18.2946 54.5807 18.1592 54.3359C18.029 54.0859 17.8311 53.8932 17.5654 53.7578C17.2998 53.6224 16.9717 53.5547 16.5811 53.5547C16.2165 53.5547 15.8962 53.6172 15.6201 53.7422C15.3493 53.8672 15.1357 54.0312 14.9795 54.2344C14.8285 54.4375 14.7529 54.6562 14.7529 54.8906H13.3076C13.3076 54.5885 13.3857 54.2891 13.542 53.9922C13.6982 53.6953 13.9222 53.4271 14.2139 53.1875C14.5107 52.9427 14.8649 52.75 15.2764 52.6094C15.693 52.4635 16.1566 52.3906 16.667 52.3906C17.2816 52.3906 17.8232 52.4948 18.292 52.7031C18.766 52.9115 19.1357 53.2266 19.4014 53.6484C19.6722 54.0651 19.8076 54.5885 19.8076 55.2188V59.1562C19.8076 59.4375 19.8311 59.737 19.8779 60.0547C19.93 60.3724 20.0055 60.6458 20.1045 60.875V61H18.5967C18.5238 60.8333 18.4665 60.612 18.4248 60.3359C18.3831 60.0547 18.3623 59.7943 18.3623 59.5547ZM18.6123 55.875L18.6279 56.8906H17.167C16.7555 56.8906 16.3883 56.9245 16.0654 56.9922C15.7425 57.0547 15.4717 57.151 15.2529 57.2812C15.0342 57.4115 14.8675 57.5755 14.7529 57.7734C14.6383 57.9661 14.5811 58.1927 14.5811 58.4531C14.5811 58.7188 14.641 58.9609 14.7607 59.1797C14.8805 59.3984 15.0602 59.5729 15.2998 59.7031C15.5446 59.8281 15.8441 59.8906 16.1982 59.8906C16.641 59.8906 17.0316 59.7969 17.3701 59.6094C17.7087 59.4219 17.9769 59.1927 18.1748 58.9219C18.3779 58.651 18.4873 58.388 18.5029 58.1328L19.1201 58.8281C19.0837 59.0469 18.9847 59.2891 18.8232 59.5547C18.6618 59.8203 18.4456 60.0755 18.1748 60.3203C17.9092 60.5599 17.5915 60.7604 17.2217 60.9219C16.8571 61.0781 16.4456 61.1562 15.9873 61.1562C15.4144 61.1562 14.9118 61.0443 14.4795 60.8203C14.0524 60.5964 13.7191 60.2969 13.4795 59.9219C13.2451 59.5417 13.1279 59.1172 13.1279 58.6484C13.1279 58.1953 13.2165 57.7969 13.3936 57.4531C13.5706 57.1042 13.8258 56.8151 14.1592 56.5859C14.4925 56.3516 14.8936 56.1745 15.3623 56.0547C15.8311 55.9349 16.3545 55.875 16.9326 55.875H18.6123ZM25.2373 56.9609H23.6826V56.0703H25.1201C25.5212 56.0703 25.8389 56.0208 26.0732 55.9219C26.3076 55.8177 26.4743 55.6745 26.5732 55.4922C26.6722 55.3099 26.7217 55.0964 26.7217 54.8516C26.7217 54.6328 26.6644 54.4271 26.5498 54.2344C26.4404 54.0365 26.2633 53.8776 26.0186 53.7578C25.7738 53.6328 25.4456 53.5703 25.0342 53.5703C24.7008 53.5703 24.3988 53.6302 24.1279 53.75C23.8571 53.8646 23.641 54.0234 23.4795 54.2266C23.3232 54.4245 23.2451 54.6484 23.2451 54.8984H21.7998C21.7998 54.3828 21.9456 53.9401 22.2373 53.5703C22.5342 53.1953 22.9274 52.9062 23.417 52.7031C23.9118 52.5 24.4508 52.3984 25.0342 52.3984C25.5238 52.3984 25.9613 52.4531 26.3467 52.5625C26.7373 52.6667 27.068 52.8229 27.3389 53.0312C27.6097 53.2344 27.8154 53.4896 27.9561 53.7969C28.1019 54.099 28.1748 54.4505 28.1748 54.8516C28.1748 55.138 28.1071 55.4089 27.9717 55.6641C27.8363 55.9193 27.641 56.1458 27.3857 56.3438C27.1305 56.5365 26.8206 56.6875 26.4561 56.7969C26.0967 56.9062 25.6904 56.9609 25.2373 56.9609ZM23.6826 56.4141H25.2373C25.7425 56.4141 26.1878 56.4635 26.5732 56.5625C26.9587 56.6562 27.2816 56.7969 27.542 56.9844C27.8024 57.1719 27.9977 57.4036 28.1279 57.6797C28.2633 57.9505 28.3311 58.263 28.3311 58.6172C28.3311 59.013 28.2503 59.3698 28.0889 59.6875C27.9326 60 27.7087 60.2656 27.417 60.4844C27.1253 60.7031 26.7764 60.8698 26.3701 60.9844C25.9691 61.099 25.5238 61.1562 25.0342 61.1562C24.4873 61.1562 23.9561 61.0625 23.4404 60.875C22.9248 60.6875 22.5003 60.3984 22.167 60.0078C21.8337 59.612 21.667 59.1094 21.667 58.5H23.1123C23.1123 58.7552 23.193 58.9974 23.3545 59.2266C23.516 59.4557 23.7399 59.6406 24.0264 59.7812C24.318 59.9219 24.654 59.9922 25.0342 59.9922C25.4404 59.9922 25.779 59.9297 26.0498 59.8047C26.3206 59.6797 26.5238 59.513 26.6592 59.3047C26.7998 59.0964 26.8701 58.8698 26.8701 58.625C26.8701 58.3073 26.8076 58.0521 26.6826 57.8594C26.5576 57.6667 26.3649 57.526 26.1045 57.4375C25.8493 57.3438 25.5212 57.2969 25.1201 57.2969H23.6826V56.4141ZM34.1748 57.2812H31.4014L31.3857 56.125H33.6514C34.0993 56.125 34.4717 56.0807 34.7686 55.9922C35.0706 55.9036 35.2972 55.7708 35.4482 55.5938C35.5993 55.4167 35.6748 55.1979 35.6748 54.9375C35.6748 54.7344 35.6305 54.5573 35.542 54.4062C35.4587 54.25 35.3311 54.1224 35.1592 54.0234C34.9873 53.9193 34.7738 53.8438 34.5186 53.7969C34.2686 53.7448 33.9743 53.7188 33.6357 53.7188H31.7842V61H30.3389V52.5469H33.6357C34.1722 52.5469 34.654 52.5938 35.0811 52.6875C35.5133 52.7812 35.8805 52.9245 36.1826 53.1172C36.4899 53.3047 36.7243 53.5443 36.8857 53.8359C37.0472 54.1276 37.1279 54.4714 37.1279 54.8672C37.1279 55.1224 37.0758 55.3646 36.9717 55.5938C36.8675 55.8229 36.7139 56.026 36.5107 56.2031C36.3076 56.3802 36.0576 56.526 35.7607 56.6406C35.4639 56.75 35.1227 56.8203 34.7373 56.8516L34.1748 57.2812ZM34.1748 61H30.8779L31.5967 59.8281H34.1748C34.5758 59.8281 34.9092 59.7786 35.1748 59.6797C35.4404 59.5755 35.6383 59.4297 35.7686 59.2422C35.904 59.0495 35.9717 58.8203 35.9717 58.5547C35.9717 58.2891 35.904 58.0625 35.7686 57.875C35.6383 57.6823 35.4404 57.5365 35.1748 57.4375C34.9092 57.3333 34.5758 57.2812 34.1748 57.2812H31.9795L31.9951 56.125H34.7373L35.2607 56.5625C35.7243 56.599 36.1175 56.7135 36.4404 56.9062C36.7633 57.099 37.0081 57.3438 37.1748 57.6406C37.3415 57.9323 37.4248 58.25 37.4248 58.5938C37.4248 58.9896 37.3493 59.3385 37.1982 59.6406C37.0524 59.9427 36.8389 60.1953 36.5576 60.3984C36.2764 60.5964 35.9352 60.7474 35.5342 60.8516C35.1331 60.9505 34.68 61 34.1748 61ZM44.3467 59.5547V55.2031C44.3467 54.8698 44.279 54.5807 44.1436 54.3359C44.0133 54.0859 43.8154 53.8932 43.5498 53.7578C43.2842 53.6224 42.9561 53.5547 42.5654 53.5547C42.2008 53.5547 41.8805 53.6172 41.6045 53.7422C41.3337 53.8672 41.1201 54.0312 40.9639 54.2344C40.8128 54.4375 40.7373 54.6562 40.7373 54.8906H39.292C39.292 54.5885 39.3701 54.2891 39.5264 53.9922C39.6826 53.6953 39.9066 53.4271 40.1982 53.1875C40.4951 52.9427 40.8493 52.75 41.2607 52.6094C41.6774 52.4635 42.141 52.3906 42.6514 52.3906C43.266 52.3906 43.8076 52.4948 44.2764 52.7031C44.7503 52.9115 45.1201 53.2266 45.3857 53.6484C45.6566 54.0651 45.792 54.5885 45.792 55.2188V59.1562C45.792 59.4375 45.8154 59.737 45.8623 60.0547C45.9144 60.3724 45.9899 60.6458 46.0889 60.875V61H44.5811C44.5081 60.8333 44.4508 60.612 44.4092 60.3359C44.3675 60.0547 44.3467 59.7943 44.3467 59.5547ZM44.5967 55.875L44.6123 56.8906H43.1514C42.7399 56.8906 42.3727 56.9245 42.0498 56.9922C41.7269 57.0547 41.4561 57.151 41.2373 57.2812C41.0186 57.4115 40.8519 57.5755 40.7373 57.7734C40.6227 57.9661 40.5654 58.1927 40.5654 58.4531C40.5654 58.7188 40.6253 58.9609 40.7451 59.1797C40.8649 59.3984 41.0446 59.5729 41.2842 59.7031C41.529 59.8281 41.8285 59.8906 42.1826 59.8906C42.6253 59.8906 43.016 59.7969 43.3545 59.6094C43.693 59.4219 43.9613 59.1927 44.1592 58.9219C44.3623 58.651 44.4717 58.388 44.4873 58.1328L45.1045 58.8281C45.068 59.0469 44.9691 59.2891 44.8076 59.5547C44.6462 59.8203 44.43 60.0755 44.1592 60.3203C43.8936 60.5599 43.5758 60.7604 43.2061 60.9219C42.8415 61.0781 42.43 61.1562 41.9717 61.1562C41.3988 61.1562 40.8962 61.0443 40.4639 60.8203C40.0368 60.5964 39.7035 60.2969 39.4639 59.9219C39.2295 59.5417 39.1123 59.1172 39.1123 58.6484C39.1123 58.1953 39.2008 57.7969 39.3779 57.4531C39.555 57.1042 39.8102 56.8151 40.1436 56.5859C40.4769 56.3516 40.8779 56.1745 41.3467 56.0547C41.8154 55.9349 42.3389 55.875 42.917 55.875H44.5967ZM53.7998 56.2109V57.3828H49.3311V56.2109H53.7998ZM49.6357 52.5469V61H48.1904V52.5469H49.6357ZM54.9717 52.5469V61H53.5186V52.5469H54.9717ZM58.8623 58.7109L62.7607 52.5469H64.2139V61H62.7607V54.8359L58.8623 61H57.4248V52.5469H58.8623V58.7109ZM70.042 61.1562C69.4535 61.1562 68.9196 61.0573 68.4404 60.8594C67.9665 60.6562 67.5576 60.3724 67.2139 60.0078C66.8753 59.6432 66.6149 59.2109 66.4326 58.7109C66.2503 58.2109 66.1592 57.6641 66.1592 57.0703V56.7422C66.1592 56.0547 66.2607 55.4427 66.4639 54.9062C66.667 54.3646 66.943 53.9062 67.292 53.5312C67.641 53.1562 68.0368 52.8724 68.4795 52.6797C68.9222 52.487 69.3805 52.3906 69.8545 52.3906C70.4587 52.3906 70.9795 52.4948 71.417 52.7031C71.8597 52.9115 72.2217 53.2031 72.5029 53.5781C72.7842 53.9479 72.9925 54.3854 73.1279 54.8906C73.2633 55.3906 73.3311 55.9375 73.3311 56.5312V57.1797H67.0186V56H71.8857V55.8906C71.8649 55.5156 71.7868 55.151 71.6514 54.7969C71.5212 54.4427 71.3128 54.151 71.0264 53.9219C70.7399 53.6927 70.3493 53.5781 69.8545 53.5781C69.5264 53.5781 69.2243 53.6484 68.9482 53.7891C68.6722 53.9245 68.4352 54.1276 68.2373 54.3984C68.0394 54.6693 67.8857 55 67.7764 55.3906C67.667 55.7812 67.6123 56.2318 67.6123 56.7422V57.0703C67.6123 57.4714 67.667 57.849 67.7764 58.2031C67.891 58.5521 68.055 58.8594 68.2686 59.125C68.4873 59.3906 68.7503 59.599 69.0576 59.75C69.3701 59.901 69.7243 59.9766 70.1201 59.9766C70.6305 59.9766 71.0628 59.8724 71.417 59.6641C71.7712 59.4557 72.0811 59.1771 72.3467 58.8281L73.2217 59.5234C73.0394 59.7995 72.8076 60.0625 72.5264 60.3125C72.2451 60.5625 71.8988 60.7656 71.4873 60.9219C71.0811 61.0781 70.5993 61.1562 70.042 61.1562Z" fill="#15232A"/>
</svg>

