<svg width="32" height="32" viewBox="0 0 32 32" fill="none" xmlns="http://www.w3.org/2000/svg">
<g clip-path="url(#clip0_273_112)">
<path fill-rule="evenodd" clip-rule="evenodd" d="M7.52166 4.85499C8.70939 3.66726 10.3203 3 12 3C13.6797 3 15.2906 3.66726 16.4783 4.85499C17.6661 6.04272 18.3333 7.65363 18.3333 9.33333C18.3333 11.013 17.6661 12.6239 16.4783 13.8117C15.2906 14.9994 13.6797 15.6667 12 15.6667C10.3203 15.6667 8.70939 14.9994 7.52166 13.8117C6.33393 12.6239 5.66667 11.013 5.66667 9.33333C5.66667 7.65363 6.33393 6.04272 7.52166 4.85499ZM12 5C10.8507 5 9.74853 5.45655 8.93587 6.2692C8.12321 7.08186 7.66667 8.18406 7.66667 9.33333C7.66667 10.4826 8.12321 11.5848 8.93587 12.3975C9.74853 13.2101 10.8507 13.6667 12 13.6667C13.1493 13.6667 14.2515 13.2101 15.0641 12.3975C15.8768 11.5848 16.3333 10.4826 16.3333 9.33333C16.3333 8.18406 15.8768 7.08186 15.0641 6.2692C14.2515 5.45655 13.1493 5 12 5ZM20.3646 3.92529C20.5016 3.39027 21.0463 3.0676 21.5814 3.20458C22.9437 3.55339 24.1512 4.34569 25.0135 5.45658C25.8758 6.56746 26.3438 7.93373 26.3438 9.34C26.3438 10.7463 25.8758 12.1125 25.0135 13.2234C24.1512 14.3343 22.9437 15.1266 21.5814 15.4754C21.0463 15.6124 20.5016 15.2897 20.3646 14.7547C20.2276 14.2197 20.5503 13.6749 21.0853 13.5379C22.0174 13.2993 22.8436 12.7572 23.4336 11.9971C24.0236 11.237 24.3438 10.3022 24.3438 9.34C24.3438 8.37782 24.0236 7.443 23.4336 6.68292C22.8436 5.92284 22.0174 5.38074 21.0853 5.14208C20.5503 5.0051 20.2276 4.46032 20.3646 3.92529ZM9.33333 21C8.18406 21 7.08186 21.4565 6.2692 22.2692C5.45655 23.0819 5 24.1841 5 25.3333V28C5 28.5523 4.55228 29 4 29C3.44772 29 3 28.5523 3 28V25.3333C3 23.6536 3.66726 22.0427 4.85499 20.855C6.04272 19.6673 7.65363 19 9.33333 19H14.6667C16.3464 19 17.9573 19.6673 19.145 20.855C20.3327 22.0427 21 23.6536 21 25.3333V28C21 28.5523 20.5523 29 20 29C19.4477 29 19 28.5523 19 28V25.3333C19 24.1841 18.5435 23.0819 17.7308 22.2692C16.9181 21.4565 15.8159 21 14.6667 21H9.33333ZM23.0317 19.95C23.1698 19.4153 23.7152 19.0937 24.25 19.2318C25.6035 19.5812 26.8033 20.3686 27.6625 21.4712C28.5217 22.5739 28.9919 23.9298 29 25.3276L29 25.3333L29 28C29 28.5523 28.5523 29 28 29C27.4477 29 27 28.5523 27 28V25.3363C26.9939 24.3809 26.6722 23.4542 26.0849 22.7005C25.497 21.9461 24.6761 21.4073 23.75 21.1683C23.2153 21.0302 22.8937 20.4848 23.0317 19.95Z" fill="white"/>
</g>
<defs>
<clipPath id="clip0_273_112">
<rect width="32" height="32" fill="white"/>
</clipPath>
</defs>
</svg>
