<svg width="32" height="32" viewBox="0 0 32 32" fill="none" xmlns="http://www.w3.org/2000/svg">
    <g clip-path="url(#clip0_478_491)">
        <path fill-rule="evenodd" clip-rule="evenodd" d="M10.6667 5C10.2246 5 9.80072 5.17559 9.48816 5.48816C9.17559 5.80072 9 6.22464 9 6.66667V22.6667C9 23.1087 9.17559 23.5326 9.48816 23.8452C9.80072 24.1577 10.2246 24.3333 10.6667 24.3333H12.3333V24C12.3333 23.8279 12.3768 23.6659 12.4534 23.5245C11.5226 22.5879 11 21.3209 11 20C11 18.6739 11.5268 17.4021 12.4645 16.4645C13.4021 15.5268 14.6739 15 16 15C17.3261 15 18.5979 15.5268 19.5355 16.4645C20.4732 17.4021 21 18.6739 21 20C21 21.3209 20.4774 22.5878 19.5466 23.5245C19.6232 23.6659 19.6667 23.8279 19.6667 24V24.3333H21.3333C21.7754 24.3333 22.1993 24.1577 22.5118 23.8452C22.8244 23.5326 23 23.1087 23 22.6667V6.66667C23 6.22464 22.8244 5.80072 22.5118 5.48816C22.1993 5.17559 21.7754 5 21.3333 5H10.6667ZM19.6667 26.3333H21.3333C22.3058 26.3333 23.2384 25.947 23.9261 25.2594C24.6137 24.5718 25 23.6391 25 22.6667V6.66667C25 5.69421 24.6137 4.76157 23.9261 4.07394C23.2384 3.38631 22.3058 3 21.3333 3H10.6667C9.69421 3 8.76158 3.38631 8.07394 4.07394C7.38631 4.76158 7 5.69421 7 6.66667V22.6667C7 23.6391 7.38631 24.5718 8.07394 25.2594C8.76158 25.947 9.69421 26.3333 10.6667 26.3333H12.3333V29.3333C12.3333 29.6799 12.5128 30.0018 12.8076 30.184C13.1024 30.3662 13.4706 30.3828 13.7805 30.2278L16 29.118L18.2195 30.2278C18.5294 30.3828 18.8976 30.3662 19.1924 30.184C19.4872 30.0018 19.6667 29.6799 19.6667 29.3333V26.3333ZM17.6667 25.3345C17.6667 25.3341 17.6667 25.3337 17.6667 25.3333C17.6667 25.3329 17.6667 25.3325 17.6667 25.3321V24.714C17.1363 24.9016 16.5732 25 16 25C15.4268 25 14.8637 24.9016 14.3333 24.714V27.7153L15.5528 27.1056C15.8343 26.9648 16.1657 26.9648 16.4472 27.1056L17.6667 27.7153V25.3345ZM12.3333 9.33333C12.3333 8.78105 12.781 8.33333 13.3333 8.33333H18.6667C19.219 8.33333 19.6667 8.78105 19.6667 9.33333C19.6667 9.88562 19.219 10.3333 18.6667 10.3333H13.3333C12.781 10.3333 12.3333 9.88562 12.3333 9.33333ZM16 17C15.2044 17 14.4413 17.3161 13.8787 17.8787C13.3161 18.4413 13 19.2043 13 20C13 20.7956 13.3161 21.5587 13.8787 22.1213C14.4413 22.6839 15.2043 23 16 23C16.7957 23 17.5587 22.6839 18.1213 22.1213C18.6839 21.5587 19 20.7956 19 20C19 19.2043 18.6839 18.4413 18.1213 17.8787C17.5587 17.3161 16.7957 17 16 17Z" fill="white"/>
    </g>
    <defs>
        <clipPath id="clip0_478_491">
            <rect width="32" height="32" fill="white"/>
        </clipPath>
    </defs>
</svg>
