<svg width="48" height="55" viewBox="0 0 48 55" fill="none" xmlns="http://www.w3.org/2000/svg">
<path fill-rule="evenodd" clip-rule="evenodd" d="M28 50.4167H20C12.458 50.4167 8.686 50.4167 6.344 47.7309C4 45.0473 4 40.7252 4 32.0834V22.9167C4 14.2748 4 9.95275 6.344 7.26921C8.686 4.58337 12.478 4.58337 20.06 4.58337C21.272 4.58337 22.242 4.58337 23.06 4.62233C23.034 4.80567 23.02 4.99129 23.02 5.1815L23 11.6761C23 14.19 23 16.413 23.21 18.2027C23.438 20.1438 23.96 22.0848 25.344 23.6707C26.724 25.2519 28.42 25.8523 30.114 26.1136C31.676 26.3542 33.616 26.3542 35.81 26.3542H43.914C44 27.578 44 29.0813 44 31.0819V32.0834C44 40.7252 44 45.0473 41.656 47.7309C39.314 50.4167 35.542 50.4167 28 50.4167Z" fill="black"/>
<path d="M38.704 17.4556L30.784 9.29037C28.53 6.96433 27.404 5.80016 26.018 5.19287L26 11.4583C26 16.8597 26 19.5616 27.464 21.2391C28.928 22.9166 31.286 22.9166 36 22.9166H43.16C42.436 21.3033 41.136 19.965 38.704 17.4556Z" fill="black"/>
</svg>
