<svg width="32" height="32" viewBox="0 0 32 32" fill="none" xmlns="http://www.w3.org/2000/svg">
<g clip-path="url(#clip0_273_100)">
<path fill-rule="evenodd" clip-rule="evenodd" d="M7.41983 4.7141C8.02646 4.46282 8.67664 4.3335 9.33325 4.3335C9.98986 4.3335 10.64 4.46282 11.2467 4.7141C11.8533 4.96537 12.4045 5.33367 12.8688 5.79796C13.3331 6.26226 13.7014 6.81345 13.9527 7.42008C14.2039 8.02671 14.3333 8.67689 14.3333 9.3335C14.3333 9.99011 14.2039 10.6403 13.9527 11.2469C13.7014 11.8535 13.3331 12.4047 12.8688 12.869C12.4045 13.3333 11.8533 13.7016 11.2467 13.9529C10.64 14.2042 9.98986 14.3335 9.33325 14.3335C8.67664 14.3335 8.02646 14.2042 7.41983 13.9529C6.81321 13.7016 6.26201 13.3333 5.79772 12.869C5.33342 12.4047 4.96513 11.8535 4.71385 11.2469C4.46258 10.6403 4.33325 9.99011 4.33325 9.3335C4.33325 8.67689 4.46258 8.02671 4.71385 7.42008C4.96513 6.81345 5.33343 6.26226 5.79772 5.79796C6.26201 5.33367 6.81321 4.96537 7.41983 4.7141ZM9.33325 6.3335C8.93929 6.3335 8.54918 6.41109 8.1852 6.56186C7.82123 6.71262 7.49051 6.9336 7.21193 7.21218C6.93336 7.49075 6.71238 7.82147 6.56161 8.18545C6.41085 8.54942 6.33325 8.93953 6.33325 9.3335C6.33325 9.72746 6.41085 10.1176 6.56161 10.4815C6.71238 10.8455 6.93336 11.1762 7.21193 11.4548C7.49051 11.7334 7.82122 11.9544 8.1852 12.1051C8.54918 12.2559 8.93929 12.3335 9.33325 12.3335C9.72722 12.3335 10.1173 12.2559 10.4813 12.1051C10.8453 11.9544 11.176 11.7334 11.4546 11.4548C11.7331 11.1762 11.9541 10.8455 12.1049 10.4815C12.2557 10.1176 12.3333 9.72746 12.3333 9.3335C12.3333 8.93953 12.2557 8.54942 12.1049 8.18545C11.9541 7.82147 11.7331 7.49075 11.4546 7.21218C11.176 6.9336 10.8453 6.71262 10.4813 6.56186C10.1173 6.41109 9.72722 6.3335 9.33325 6.3335ZM17.6666 5.3335C17.6666 4.78121 18.1143 4.3335 18.6666 4.3335H26.6666C27.2189 4.3335 27.6666 4.78121 27.6666 5.3335V13.3335C27.6666 13.8858 27.2189 14.3335 26.6666 14.3335H18.6666C18.1143 14.3335 17.6666 13.8858 17.6666 13.3335V5.3335ZM19.6666 6.3335V12.3335H25.6666V6.3335H19.6666ZM4.33325 18.6668C4.33325 18.1145 4.78097 17.6668 5.33325 17.6668H13.3333C13.8855 17.6668 14.3333 18.1145 14.3333 18.6668V26.6668C14.3333 27.2191 13.8855 27.6668 13.3333 27.6668H5.33325C4.78097 27.6668 4.33325 27.2191 4.33325 26.6668V18.6668ZM6.33325 19.6668V25.6668H12.3333V19.6668H6.33325ZM19.1311 19.1313C20.0687 18.1936 21.3405 17.6668 22.6666 17.6668C23.9927 17.6668 25.2644 18.1936 26.2021 19.1313C27.1398 20.069 27.6666 21.3407 27.6666 22.6668C27.6666 23.9929 27.1398 25.2647 26.2021 26.2024C25.2644 27.14 23.9927 27.6668 22.6666 27.6668C21.3405 27.6668 20.0687 27.14 19.1311 26.2024C18.1934 25.2647 17.6666 23.9929 17.6666 22.6668C17.6666 21.3407 18.1934 20.069 19.1311 19.1313ZM22.6666 19.6668C21.8709 19.6668 21.1079 19.9829 20.5453 20.5455C19.9827 21.1081 19.6666 21.8712 19.6666 22.6668C19.6666 23.4625 19.9827 24.2255 20.5453 24.7882C21.1079 25.3508 21.8709 25.6668 22.6666 25.6668C23.4622 25.6668 24.2253 25.3508 24.7879 24.7882C25.3505 24.2255 25.6666 23.4625 25.6666 22.6668C25.6666 21.8712 25.3505 21.1081 24.7879 20.5455C24.2253 19.9829 23.4622 19.6668 22.6666 19.6668Z" fill="white"/>
</g>
<defs>
<clipPath id="clip0_273_100">
<rect width="32" height="32" fill="white"/>
</clipPath>
</defs>
</svg>
