<svg width="32" height="32" viewBox="0 0 32 32" fill="none" xmlns="http://www.w3.org/2000/svg">
<g clip-path="url(#clip0_273_118)">
<path fill-rule="evenodd" clip-rule="evenodd" d="M15.9907 1.66943C16.3714 1.66943 16.719 1.88553 16.8875 2.22687L20.7694 10.0925L29.4488 11.3504C29.8257 11.4051 30.1389 11.669 30.2565 12.0312C30.3741 12.3935 30.2758 12.791 30.0029 13.0567L23.7133 19.179L25.1963 27.8244C25.2607 28.1997 25.1063 28.579 24.7981 28.8027C24.4899 29.0264 24.0814 29.0557 23.7445 28.8781L15.9995 24.7968L8.23608 28.8786C7.89916 29.0557 7.49089 29.0262 7.18294 28.8025C6.87498 28.5787 6.72076 28.1995 6.78512 27.8244L8.26815 19.179L1.97854 13.0567C1.70565 12.791 1.60732 12.3935 1.72495 12.0312C1.84257 11.669 2.15573 11.4051 2.53263 11.3504L11.2121 10.0925L15.094 2.22687C15.2624 1.88553 15.6101 1.66943 15.9907 1.66943ZM15.9907 4.92901L12.7728 11.4493C12.6271 11.7446 12.3453 11.9492 12.0195 11.9964L4.82746 13.0387L10.0402 18.1129C10.2763 18.3426 10.384 18.6739 10.3283 18.9985L9.09892 26.1653L15.5347 22.7816C15.8263 22.6283 16.1748 22.6285 16.4662 22.7821L22.8821 26.163L21.6531 18.9985C21.5974 18.6739 21.7052 18.3426 21.9412 18.1129L27.154 13.0387L19.962 11.9964C19.6361 11.9492 19.3544 11.7446 19.2087 11.4493L15.9907 4.92901Z" fill="white"/>
</g>
<defs>
<clipPath id="clip0_273_118">
<rect width="32" height="32" fill="white"/>
</clipPath>
</defs>
</svg>
