<svg width="32" height="32" viewBox="0 0 32 32" fill="none" xmlns="http://www.w3.org/2000/svg">
<g clip-path="url(#clip0_273_106)">
<path fill-rule="evenodd" clip-rule="evenodd" d="M9.33342 6.3335C8.89139 6.3335 8.46746 6.50909 8.1549 6.82165C7.84234 7.13421 7.66675 7.55814 7.66675 8.00016V24.0002C7.66675 24.4422 7.84234 24.8661 8.1549 25.1787C8.46746 25.4912 8.89139 25.6668 9.33342 25.6668H12.8201C13.3724 25.6668 13.8201 26.1145 13.8201 26.6668C13.8201 27.2191 13.3724 27.6668 12.8201 27.6668H9.33342C8.36095 27.6668 7.42832 27.2805 6.74069 26.5929C6.05306 25.9053 5.66675 24.9726 5.66675 24.0002V8.00016C5.66675 7.0277 6.05306 6.09507 6.74069 5.40744C7.42832 4.7198 8.36095 4.3335 9.33342 4.3335H20.0001C20.9725 4.3335 21.9052 4.7198 22.5928 5.40744C23.2804 6.09507 23.6667 7.0277 23.6667 8.00016V18.6668C23.6667 19.2191 23.219 19.6668 22.6667 19.6668C22.1145 19.6668 21.6667 19.2191 21.6667 18.6668V8.00016C21.6667 7.55814 21.4912 7.13421 21.1786 6.82165C20.866 6.50909 20.4421 6.3335 20.0001 6.3335H9.33342ZM11.0001 10.6668C11.0001 10.1145 11.4478 9.66683 12.0001 9.66683H17.3334C17.8857 9.66683 18.3334 10.1145 18.3334 10.6668C18.3334 11.2191 17.8857 11.6668 17.3334 11.6668H12.0001C11.4478 11.6668 11.0001 11.2191 11.0001 10.6668ZM11.0001 16.0002C11.0001 15.4479 11.4478 15.0002 12.0001 15.0002H14.6667C15.219 15.0002 15.6667 15.4479 15.6667 16.0002C15.6667 16.5524 15.219 17.0002 14.6667 17.0002H12.0001C11.4478 17.0002 11.0001 16.5524 11.0001 16.0002ZM27.3739 21.9597C27.7644 22.3502 27.7644 22.9834 27.3739 23.3739L22.0405 28.7073C21.65 29.0978 21.0168 29.0978 20.6263 28.7073L17.9596 26.0406C17.5691 25.6501 17.5691 25.0169 17.9596 24.6264C18.3502 24.2359 18.9833 24.2359 19.3739 24.6264L21.3334 26.5859L25.9596 21.9597C26.3502 21.5692 26.9833 21.5692 27.3739 21.9597Z" fill="white"/>
</g>
<defs>
<clipPath id="clip0_273_106">
<rect width="32" height="32" fill="white"/>
</clipPath>
</defs>
</svg>
