<svg width="131" height="131" viewBox="0 0 131 131" fill="none" xmlns="http://www.w3.org/2000/svg">
<rect x="1" y="1" width="129" height="129" rx="7" fill="white"/>
<rect x="1" y="1" width="129" height="129" rx="7" stroke="#E96E2A" stroke-width="2"/>
<g clip-path="url(#clip0_352_840)">
<path d="M73.9999 42C75.3455 41.9996 76.6414 42.5078 77.628 43.4227C78.6147 44.3376 79.219 45.5916 79.3199 46.9333L79.3333 47.3333C79.3333 47.9865 79.5731 48.6169 80.0072 49.105C80.4412 49.5931 81.0392 49.9049 81.6879 49.9813L81.9999 50H84.6666C86.7071 49.9999 88.6706 50.7795 90.1553 52.1794C91.6399 53.5793 92.5335 55.4936 92.6533 57.5307L92.6666 58V82C92.6667 84.0406 91.8871 86.004 90.4872 87.4887C89.0873 88.9734 87.173 89.867 85.1359 89.9867L84.6666 90H47.3333C45.2927 90.0001 43.3292 89.2205 41.8446 87.8206C40.3599 86.4207 39.4663 84.5064 39.3466 82.4693L39.3333 82V58C39.3331 55.9594 40.1128 53.996 41.5127 52.5113C42.9126 51.0266 44.8269 50.133 46.8639 50.0133L47.3333 50H49.9999C50.7072 50 51.3854 49.719 51.8855 49.219C52.3856 48.7189 52.6666 48.0406 52.6666 47.3333C52.6662 45.9878 53.1743 44.6918 54.0892 43.7052C55.0042 42.7186 56.2582 42.1142 57.5999 42.0133L57.9999 42H73.9999ZM65.9999 60.6667C64.0175 60.6665 62.1056 61.4024 60.6349 62.7317C59.1642 64.061 58.2395 65.889 58.0399 67.8613L58.0106 68.2667L57.9999 68.6667L58.0106 69.0667C58.0888 70.63 58.624 72.1359 59.5497 73.3981C60.4754 74.6602 61.7511 75.6231 63.2186 76.1674C64.6862 76.7117 66.2812 76.8135 67.806 76.4603C69.3309 76.107 70.7186 75.3142 71.7974 74.18C72.8761 73.0459 73.5984 71.6202 73.8748 70.0795C74.1513 68.5389 73.9697 66.951 73.3526 65.5126C72.7354 64.0741 71.7099 62.8483 70.403 61.9869C69.0961 61.1256 67.5652 60.6665 65.9999 60.6667Z" fill="black" fill-opacity="0.15"/>
</g>
<rect x="91" y="8" width="32" height="32" rx="4" fill="#E96E2A"/>
<path d="M105.193 23.002H106.482C107.114 23.002 107.635 22.8978 108.045 22.6895C108.462 22.4746 108.771 22.1849 108.973 21.8203C109.181 21.4492 109.285 21.0326 109.285 20.5703C109.285 20.0234 109.194 19.5645 109.012 19.1934C108.829 18.8223 108.556 18.5423 108.191 18.3535C107.827 18.1647 107.365 18.0703 106.805 18.0703C106.297 18.0703 105.848 18.1712 105.457 18.373C105.073 18.5684 104.77 18.8483 104.549 19.2129C104.334 19.5775 104.227 20.0072 104.227 20.502H102.42C102.42 19.7793 102.602 19.1217 102.967 18.5293C103.331 17.9368 103.842 17.4648 104.5 17.1133C105.164 16.7617 105.932 16.5859 106.805 16.5859C107.664 16.5859 108.416 16.7389 109.061 17.0449C109.705 17.3444 110.206 17.7936 110.564 18.3926C110.923 18.985 111.102 19.724 111.102 20.6094C111.102 20.9674 111.017 21.3516 110.848 21.7617C110.685 22.1654 110.428 22.543 110.076 22.8945C109.731 23.2461 109.282 23.5358 108.729 23.7637C108.175 23.985 107.511 24.0957 106.736 24.0957H105.193V23.002ZM105.193 24.4863V23.4023H106.736C107.641 23.4023 108.39 23.5098 108.982 23.7246C109.575 23.9395 110.04 24.2259 110.379 24.584C110.724 24.9421 110.965 25.3359 111.102 25.7656C111.245 26.1888 111.316 26.612 111.316 27.0352C111.316 27.6992 111.202 28.2884 110.975 28.8027C110.753 29.3171 110.438 29.7533 110.027 30.1113C109.624 30.4694 109.148 30.7396 108.602 30.9219C108.055 31.1042 107.459 31.1953 106.814 31.1953C106.196 31.1953 105.613 31.1074 105.066 30.9316C104.526 30.7559 104.048 30.502 103.631 30.1699C103.214 29.8314 102.889 29.418 102.654 28.9297C102.42 28.4349 102.303 27.8717 102.303 27.2402H104.109C104.109 27.735 104.217 28.168 104.432 28.5391C104.653 28.9102 104.965 29.1999 105.369 29.4082C105.779 29.61 106.261 29.7109 106.814 29.7109C107.368 29.7109 107.843 29.6165 108.24 29.4277C108.644 29.2324 108.953 28.9395 109.168 28.5488C109.389 28.1582 109.5 27.6667 109.5 27.0742C109.5 26.4818 109.376 25.9967 109.129 25.6191C108.882 25.235 108.53 24.9518 108.074 24.7695C107.625 24.5807 107.094 24.4863 106.482 24.4863H105.193Z" fill="white"/>
<defs>
<clipPath id="clip0_352_840">
<rect width="64" height="64" fill="white" transform="translate(34 34)"/>
</clipPath>
</defs>
</svg>

