<svg width="150" height="150" viewBox="0 0 150 150" fill="none" xmlns="http://www.w3.org/2000/svg">
<rect x="1" y="1" width="148" height="148" rx="7" fill="white"/>
<rect x="1" y="1" width="148" height="148" rx="7" stroke="#F4BC16" stroke-width="2"/>
<g clip-path="url(#clip0_352_844)">
<path d="M92.0001 27C94.6912 26.9991 97.2831 28.0155 99.2563 29.8453C101.23 31.6751 102.438 34.1832 102.64 36.8667L102.667 37.6667C102.667 38.973 103.147 40.2338 104.015 41.21C104.883 42.1862 106.079 42.8098 107.376 42.9627L108 43H113.333C117.415 42.9998 121.341 44.5591 124.311 47.3588C127.28 50.1586 129.067 53.9872 129.307 58.0613L129.333 59V107C129.334 111.081 127.774 115.008 124.975 117.977C122.175 120.947 118.346 122.734 114.272 122.973L113.333 123H38.6667C34.5856 123 30.6587 121.441 27.6894 118.641C24.72 115.841 22.9328 112.013 22.6934 107.939L22.6667 107V59C22.6665 54.9189 24.2258 50.9919 27.0256 48.0226C29.8254 45.0533 33.654 43.2661 37.7281 43.0267L38.6667 43H44.0001C45.4146 43 46.7711 42.4381 47.7713 41.4379C48.7715 40.4377 49.3334 39.0812 49.3334 37.6667C49.3326 34.9756 50.3489 32.3836 52.1787 30.4104C54.0086 28.4372 56.5166 27.2285 59.2001 27.0267L60.0001 27H92.0001ZM76.0001 64.3333C72.0353 64.333 68.2115 65.8048 65.2701 68.4634C62.3287 71.122 60.4792 74.778 60.0801 78.7227L60.0214 79.5333L60.0001 80.3333L60.0214 81.1333C60.1779 84.2599 61.2482 87.2719 63.0997 89.7962C64.9511 92.3205 67.5024 94.2462 70.4375 95.3348C73.3726 96.4234 76.5626 96.627 79.6123 95.9205C82.662 95.2141 85.4375 93.6284 87.595 91.3601C89.7524 89.0918 91.197 86.2404 91.7499 83.1591C92.3028 80.0778 91.9396 76.902 90.7054 74.0251C89.4711 71.1482 87.4201 68.6966 84.8062 66.9739C82.1924 65.2512 79.1306 64.3331 76.0001 64.3333Z" fill="black" fill-opacity="0.15"/>
</g>
<rect x="110" y="8" width="32" height="32" rx="4" fill="#F4BC16"/>
<path d="M127.494 16.7031V31H125.688V18.959L122.045 20.2871V18.6562L127.211 16.7031H127.494Z" fill="white"/>
<defs>
<clipPath id="clip0_352_844">
<rect width="128" height="128" fill="white" transform="translate(12 11)"/>
</clipPath>
</defs>
</svg>

