<svg width="131" height="131" viewBox="0 0 131 131" fill="none" xmlns="http://www.w3.org/2000/svg">
<rect x="1" y="1" width="129" height="129" rx="7" fill="white"/>
<rect x="1" y="1" width="129" height="129" rx="7" stroke="#A9BBC6" stroke-width="2"/>
<g clip-path="url(#clip0_352_835)">
<path d="M73.9999 42C75.3455 41.9996 76.6414 42.5078 77.628 43.4227C78.6147 44.3376 79.219 45.5916 79.3199 46.9333L79.3333 47.3333C79.3333 47.9865 79.5731 48.6169 80.0072 49.105C80.4412 49.5931 81.0392 49.9049 81.6879 49.9813L81.9999 50H84.6666C86.7071 49.9999 88.6706 50.7795 90.1553 52.1794C91.6399 53.5793 92.5335 55.4936 92.6533 57.5307L92.6666 58V82C92.6667 84.0406 91.8871 86.004 90.4872 87.4887C89.0873 88.9734 87.173 89.867 85.1359 89.9867L84.6666 90H47.3333C45.2927 90.0001 43.3292 89.2205 41.8446 87.8206C40.3599 86.4207 39.4663 84.5064 39.3466 82.4693L39.3333 82V58C39.3331 55.9594 40.1128 53.996 41.5127 52.5113C42.9126 51.0266 44.8269 50.133 46.8639 50.0133L47.3333 50H49.9999C50.7072 50 51.3854 49.719 51.8855 49.219C52.3856 48.7189 52.6666 48.0406 52.6666 47.3333C52.6662 45.9878 53.1743 44.6918 54.0892 43.7052C55.0042 42.7186 56.2582 42.1142 57.5999 42.0133L57.9999 42H73.9999ZM65.9999 60.6667C64.0175 60.6665 62.1056 61.4024 60.6349 62.7317C59.1642 64.061 58.2395 65.889 58.0399 67.8613L58.0106 68.2667L57.9999 68.6667L58.0106 69.0667C58.0888 70.63 58.624 72.1359 59.5497 73.3981C60.4754 74.6602 61.7511 75.6231 63.2186 76.1674C64.6862 76.7117 66.2812 76.8135 67.806 76.4603C69.3309 76.107 70.7186 75.3142 71.7974 74.18C72.8761 73.0459 73.5984 71.6202 73.8748 70.0795C74.1513 68.5389 73.9697 66.951 73.3526 65.5126C72.7354 64.0741 71.7099 62.8483 70.403 61.9869C69.0961 61.1256 67.5652 60.6665 65.9999 60.6667Z" fill="black" fill-opacity="0.15"/>
</g>
<rect x="91" y="8" width="32" height="32" rx="4" fill="#A9BBC6"/>
<path d="M111.873 29.5156V31H102.566V29.7012L107.225 24.5156C107.798 23.8776 108.24 23.3372 108.553 22.8945C108.872 22.4453 109.093 22.0449 109.217 21.6934C109.347 21.3353 109.412 20.9707 109.412 20.5996C109.412 20.1309 109.314 19.7077 109.119 19.3301C108.93 18.946 108.65 18.64 108.279 18.4121C107.908 18.1842 107.459 18.0703 106.932 18.0703C106.3 18.0703 105.773 18.194 105.35 18.4414C104.933 18.6823 104.62 19.0208 104.412 19.457C104.204 19.8932 104.1 20.3945 104.1 20.9609H102.293C102.293 20.1602 102.469 19.4277 102.82 18.7637C103.172 18.0996 103.693 17.5723 104.383 17.1816C105.073 16.7845 105.923 16.5859 106.932 16.5859C107.83 16.5859 108.598 16.7454 109.236 17.0645C109.874 17.377 110.363 17.8197 110.701 18.3926C111.046 18.959 111.219 19.623 111.219 20.3848C111.219 20.8014 111.147 21.2246 111.004 21.6543C110.867 22.0775 110.675 22.5007 110.428 22.9238C110.187 23.347 109.904 23.7637 109.578 24.1738C109.259 24.584 108.917 24.9876 108.553 25.3848L104.744 29.5156H111.873Z" fill="white"/>
<defs>
<clipPath id="clip0_352_835">
<rect width="64" height="64" fill="white" transform="translate(34 34)"/>
</clipPath>
</defs>
</svg>

