<svg width="376" height="80" viewBox="0 0 376 80" fill="none" xmlns="http://www.w3.org/2000/svg">
<rect x="66" y="1" width="78" height="78" rx="7" fill="white"/>
<rect x="66" y="1" width="78" height="78" rx="7" stroke="#A9BBC6" stroke-width="2"/>
<g clip-path="url(#clip0_352_1145)">
<path d="M108.75 28.75C109.381 28.7498 109.988 28.988 110.451 29.4169C110.913 29.8457 111.196 30.4336 111.244 31.0625L111.25 31.25C111.25 31.5562 111.362 31.8517 111.566 32.0805C111.769 32.3093 112.05 32.4554 112.354 32.4913L112.5 32.5H113.75C114.707 32.4999 115.627 32.8654 116.323 33.5216C117.019 34.1778 117.438 35.0751 117.494 36.03L117.5 36.25V47.5C117.5 48.4565 117.135 49.3769 116.478 50.0728C115.822 50.7688 114.925 51.1876 113.97 51.2438L113.75 51.25H96.25C95.2935 51.2501 94.3731 50.8846 93.6772 50.2284C92.9812 49.5722 92.5624 48.6749 92.5063 47.72L92.5 47.5V36.25C92.4999 35.2935 92.8654 34.3731 93.5216 33.6772C94.1778 32.9812 95.0751 32.5624 96.03 32.5063L96.25 32.5H97.5C97.8315 32.5 98.1495 32.3683 98.3839 32.1339C98.6183 31.8995 98.75 31.5815 98.75 31.25C98.7498 30.6193 98.988 30.0118 99.4169 29.5493C99.8457 29.0868 100.434 28.8036 101.063 28.7563L101.25 28.75H108.75ZM105 37.5C104.071 37.4999 103.175 37.8449 102.485 38.468C101.796 39.0911 101.362 39.948 101.269 40.8725L101.255 41.0625L101.25 41.25L101.255 41.4375C101.292 42.1703 101.543 42.8762 101.976 43.4679C102.41 44.0595 103.008 44.5108 103.696 44.766C104.384 45.0211 105.132 45.0688 105.847 44.9033C106.561 44.7377 107.212 44.366 107.718 43.8344C108.223 43.3028 108.562 42.6345 108.691 41.9123C108.821 41.1901 108.736 40.4458 108.447 39.7715C108.157 39.0972 107.677 38.5226 107.064 38.1189C106.451 37.7151 105.734 37.4999 105 37.5Z" fill="black" fill-opacity="0.15"/>
</g>
<path d="M186.766 42.1055C186.734 42.8242 186.625 43.5469 186.438 44.2734C186.25 44.9922 185.969 45.6523 185.594 46.2539C185.219 46.8555 184.73 47.3398 184.129 47.707C183.535 48.0664 182.816 48.2461 181.973 48.2461C181.434 48.2461 180.961 48.1523 180.555 47.9648C180.156 47.7695 179.828 47.4922 179.57 47.1328C179.32 46.7734 179.145 46.3398 179.043 45.832C178.949 45.3242 178.934 44.7578 178.996 44.1328L179.594 37.6406H181.316L180.719 44.1328C180.672 44.7031 180.684 45.168 180.754 45.5273C180.832 45.8867 180.949 46.1641 181.105 46.3594C181.262 46.5469 181.438 46.6758 181.633 46.7461C181.836 46.8164 182.031 46.8516 182.219 46.8516C182.688 46.8516 183.105 46.7305 183.473 46.4883C183.84 46.2383 184.148 45.8984 184.398 45.4688C184.656 45.0312 184.855 44.5273 184.996 43.957C185.137 43.3789 185.223 42.7617 185.254 42.1055C185.309 40.9414 185.254 39.8711 185.09 38.8945C184.934 37.918 184.664 37.0508 184.281 36.293C183.906 35.5352 183.414 34.8945 182.805 34.3711C182.195 33.8477 181.469 33.4492 180.625 33.1758C179.781 32.9023 178.816 32.7656 177.73 32.7656C176.746 32.7656 175.836 32.918 175 33.2227C174.172 33.5195 173.426 33.9492 172.762 34.5117C172.105 35.0742 171.539 35.75 171.062 36.5391C170.594 37.3281 170.223 38.2188 169.949 39.2109C169.684 40.1953 169.527 41.2578 169.48 42.3984C169.426 43.5703 169.488 44.6484 169.668 45.6328C169.848 46.6094 170.137 47.4805 170.535 48.2461C170.941 49.0195 171.453 49.6719 172.07 50.2031C172.688 50.7422 173.402 51.1484 174.215 51.4219C175.027 51.7031 175.934 51.8438 176.934 51.8438C177.621 51.8438 178.316 51.7617 179.02 51.5977C179.73 51.4336 180.324 51.2109 180.801 50.9297L181.246 52.2656C180.699 52.6172 180.016 52.8789 179.195 53.0508C178.383 53.2227 177.613 53.3086 176.887 53.3086C175.699 53.3086 174.613 53.1445 173.629 52.8164C172.652 52.4961 171.785 52.0234 171.027 51.3984C170.277 50.7812 169.652 50.0273 169.152 49.1367C168.652 48.2539 168.285 47.2461 168.051 46.1133C167.816 44.9805 167.727 43.7422 167.781 42.3984C167.836 41.1172 168.027 39.9102 168.355 38.7773C168.691 37.6445 169.148 36.6172 169.727 35.6953C170.305 34.7734 170.992 33.9805 171.789 33.3164C172.594 32.6445 173.496 32.1289 174.496 31.7695C175.504 31.4102 176.598 31.2305 177.777 31.2305C178.98 31.2305 180.07 31.3945 181.047 31.7227C182.023 32.0508 182.879 32.5234 183.613 33.1406C184.355 33.7578 184.969 34.5117 185.453 35.4023C185.938 36.293 186.289 37.3008 186.508 38.4258C186.734 39.5508 186.82 40.7773 186.766 42.1055ZM174.73 43.1016C174.676 43.6484 174.676 44.1367 174.73 44.5664C174.785 44.9961 174.891 45.3594 175.047 45.6562C175.203 45.9531 175.406 46.1797 175.656 46.3359C175.914 46.4844 176.215 46.5586 176.559 46.5586C176.785 46.5586 177.023 46.5039 177.273 46.3945C177.523 46.2773 177.77 46.0977 178.012 45.8555C178.254 45.6133 178.48 45.2969 178.691 44.9062C178.902 44.5156 179.078 44.0469 179.219 43.5L179.992 44.3438C179.812 44.9844 179.578 45.5469 179.289 46.0312C179.008 46.5156 178.691 46.9219 178.34 47.25C177.988 47.5781 177.613 47.8281 177.215 48C176.824 48.1641 176.426 48.2461 176.02 48.2461C175.449 48.2461 174.949 48.125 174.52 47.8828C174.09 47.6328 173.742 47.2812 173.477 46.8281C173.211 46.375 173.023 45.8359 172.914 45.2109C172.812 44.5781 172.797 43.875 172.867 43.1016C172.938 42.2812 173.082 41.5234 173.301 40.8281C173.52 40.1328 173.789 39.5117 174.109 38.9648C174.438 38.418 174.805 37.9531 175.211 37.5703C175.625 37.1875 176.062 36.8984 176.523 36.7031C176.984 36.5 177.457 36.3984 177.941 36.3984C178.785 36.3984 179.449 36.5234 179.934 36.7734C180.418 37.0156 180.879 37.3047 181.316 37.6406L180.32 38.8008C180.094 38.582 179.797 38.3789 179.43 38.1914C179.062 38.0039 178.629 37.9102 178.129 37.9102C177.699 37.9102 177.297 38.0195 176.922 38.2383C176.547 38.457 176.207 38.7852 175.902 39.2227C175.605 39.6602 175.355 40.2031 175.152 40.8516C174.949 41.4922 174.809 42.2422 174.73 43.1016ZM191.805 38.0273V48H189.637V35.3203H191.688L191.805 38.0273ZM191.289 41.1797L190.387 41.1445C190.395 40.2773 190.523 39.4766 190.773 38.7422C191.023 38 191.375 37.3555 191.828 36.8086C192.281 36.2617 192.82 35.8398 193.445 35.543C194.078 35.2383 194.777 35.0859 195.543 35.0859C196.168 35.0859 196.73 35.1719 197.23 35.3438C197.73 35.5078 198.156 35.7734 198.508 36.1406C198.867 36.5078 199.141 36.9844 199.328 37.5703C199.516 38.1484 199.609 38.8555 199.609 39.6914V48H197.43V39.668C197.43 39.0039 197.332 38.4727 197.137 38.0742C196.941 37.668 196.656 37.375 196.281 37.1953C195.906 37.0078 195.445 36.9141 194.898 36.9141C194.359 36.9141 193.867 37.0273 193.422 37.2539C192.984 37.4805 192.605 37.793 192.285 38.1914C191.973 38.5898 191.727 39.0469 191.547 39.5625C191.375 40.0703 191.289 40.6094 191.289 41.1797ZM205.258 35.3203V48H203.078V35.3203H205.258ZM202.914 31.957C202.914 31.6055 203.02 31.3086 203.23 31.0664C203.449 30.8242 203.77 30.7031 204.191 30.7031C204.605 30.7031 204.922 30.8242 205.141 31.0664C205.367 31.3086 205.48 31.6055 205.48 31.957C205.48 32.293 205.367 32.582 205.141 32.8242C204.922 33.0586 204.605 33.1758 204.191 33.1758C203.77 33.1758 203.449 33.0586 203.23 32.8242C203.02 32.582 202.914 32.293 202.914 31.957ZM210.918 30V48H208.738V30H210.918ZM218.664 35.3203L213.133 41.2383L210.039 44.4492L209.863 42.1406L212.078 39.4922L216.016 35.3203H218.664ZM216.684 48L212.16 41.9531L213.285 40.0195L219.238 48H216.684ZM223.07 38.0273V48H220.902V35.3203H222.953L223.07 38.0273ZM222.555 41.1797L221.652 41.1445C221.66 40.2773 221.789 39.4766 222.039 38.7422C222.289 38 222.641 37.3555 223.094 36.8086C223.547 36.2617 224.086 35.8398 224.711 35.543C225.344 35.2383 226.043 35.0859 226.809 35.0859C227.434 35.0859 227.996 35.1719 228.496 35.3438C228.996 35.5078 229.422 35.7734 229.773 36.1406C230.133 36.5078 230.406 36.9844 230.594 37.5703C230.781 38.1484 230.875 38.8555 230.875 39.6914V48H228.695V39.668C228.695 39.0039 228.598 38.4727 228.402 38.0742C228.207 37.668 227.922 37.375 227.547 37.1953C227.172 37.0078 226.711 36.9141 226.164 36.9141C225.625 36.9141 225.133 37.0273 224.688 37.2539C224.25 37.4805 223.871 37.793 223.551 38.1914C223.238 38.5898 222.992 39.0469 222.812 39.5625C222.641 40.0703 222.555 40.6094 222.555 41.1797ZM236.523 35.3203V48H234.344V35.3203H236.523ZM234.18 31.957C234.18 31.6055 234.285 31.3086 234.496 31.0664C234.715 30.8242 235.035 30.7031 235.457 30.7031C235.871 30.7031 236.188 30.8242 236.406 31.0664C236.633 31.3086 236.746 31.6055 236.746 31.957C236.746 32.293 236.633 32.582 236.406 32.8242C236.188 33.0586 235.871 33.1758 235.457 33.1758C235.035 33.1758 234.715 33.0586 234.496 32.8242C234.285 32.582 234.18 32.293 234.18 31.957ZM242.184 30V48H240.004V30H242.184ZM249.93 35.3203L244.398 41.2383L241.305 44.4492L241.129 42.1406L243.344 39.4922L247.281 35.3203H249.93ZM247.949 48L243.426 41.9531L244.551 40.0195L250.504 48H247.949ZM254.336 38.0273V48H252.168V35.3203H254.219L254.336 38.0273ZM253.82 41.1797L252.918 41.1445C252.926 40.2773 253.055 39.4766 253.305 38.7422C253.555 38 253.906 37.3555 254.359 36.8086C254.812 36.2617 255.352 35.8398 255.977 35.543C256.609 35.2383 257.309 35.0859 258.074 35.0859C258.699 35.0859 259.262 35.1719 259.762 35.3438C260.262 35.5078 260.688 35.7734 261.039 36.1406C261.398 36.5078 261.672 36.9844 261.859 37.5703C262.047 38.1484 262.141 38.8555 262.141 39.6914V48H259.961V39.668C259.961 39.0039 259.863 38.4727 259.668 38.0742C259.473 37.668 259.188 37.375 258.812 37.1953C258.438 37.0078 257.977 36.9141 257.43 36.9141C256.891 36.9141 256.398 37.0273 255.953 37.2539C255.516 37.4805 255.137 37.793 254.816 38.1914C254.504 38.5898 254.258 39.0469 254.078 39.5625C253.906 40.0703 253.82 40.6094 253.82 41.1797ZM267.789 35.3203V48H265.609V35.3203H267.789ZM265.445 31.957C265.445 31.6055 265.551 31.3086 265.762 31.0664C265.98 30.8242 266.301 30.7031 266.723 30.7031C267.137 30.7031 267.453 30.8242 267.672 31.0664C267.898 31.3086 268.012 31.6055 268.012 31.957C268.012 32.293 267.898 32.582 267.672 32.8242C267.453 33.0586 267.137 33.1758 266.723 33.1758C266.301 33.1758 265.98 33.0586 265.762 32.8242C265.551 32.582 265.445 32.293 265.445 31.957ZM273.449 30V48H271.27V30H273.449ZM281.195 35.3203L275.664 41.2383L272.57 44.4492L272.395 42.1406L274.609 39.4922L278.547 35.3203H281.195ZM279.215 48L274.691 41.9531L275.816 40.0195L281.77 48H279.215ZM285.602 38.0273V48H283.434V35.3203H285.484L285.602 38.0273ZM285.086 41.1797L284.184 41.1445C284.191 40.2773 284.32 39.4766 284.57 38.7422C284.82 38 285.172 37.3555 285.625 36.8086C286.078 36.2617 286.617 35.8398 287.242 35.543C287.875 35.2383 288.574 35.0859 289.34 35.0859C289.965 35.0859 290.527 35.1719 291.027 35.3438C291.527 35.5078 291.953 35.7734 292.305 36.1406C292.664 36.5078 292.938 36.9844 293.125 37.5703C293.312 38.1484 293.406 38.8555 293.406 39.6914V48H291.227V39.668C291.227 39.0039 291.129 38.4727 290.934 38.0742C290.738 37.668 290.453 37.375 290.078 37.1953C289.703 37.0078 289.242 36.9141 288.695 36.9141C288.156 36.9141 287.664 37.0273 287.219 37.2539C286.781 37.4805 286.402 37.793 286.082 38.1914C285.77 38.5898 285.523 39.0469 285.344 39.5625C285.172 40.0703 285.086 40.6094 285.086 41.1797ZM299.055 35.3203V48H296.875V35.3203H299.055ZM296.711 31.957C296.711 31.6055 296.816 31.3086 297.027 31.0664C297.246 30.8242 297.566 30.7031 297.988 30.7031C298.402 30.7031 298.719 30.8242 298.938 31.0664C299.164 31.3086 299.277 31.6055 299.277 31.957C299.277 32.293 299.164 32.582 298.938 32.8242C298.719 33.0586 298.402 33.1758 297.988 33.1758C297.566 33.1758 297.246 33.0586 297.027 32.8242C296.816 32.582 296.711 32.293 296.711 31.957ZM304.715 30V48H302.535V30H304.715ZM312.461 35.3203L306.93 41.2383L303.836 44.4492L303.66 42.1406L305.875 39.4922L309.812 35.3203H312.461ZM310.48 48L305.957 41.9531L307.082 40.0195L313.035 48H310.48ZM316.867 38.0273V48H314.699V35.3203H316.75L316.867 38.0273ZM316.352 41.1797L315.449 41.1445C315.457 40.2773 315.586 39.4766 315.836 38.7422C316.086 38 316.438 37.3555 316.891 36.8086C317.344 36.2617 317.883 35.8398 318.508 35.543C319.141 35.2383 319.84 35.0859 320.605 35.0859C321.23 35.0859 321.793 35.1719 322.293 35.3438C322.793 35.5078 323.219 35.7734 323.57 36.1406C323.93 36.5078 324.203 36.9844 324.391 37.5703C324.578 38.1484 324.672 38.8555 324.672 39.6914V48H322.492V39.668C322.492 39.0039 322.395 38.4727 322.199 38.0742C322.004 37.668 321.719 37.375 321.344 37.1953C320.969 37.0078 320.508 36.9141 319.961 36.9141C319.422 36.9141 318.93 37.0273 318.484 37.2539C318.047 37.4805 317.668 37.793 317.348 38.1914C317.035 38.5898 316.789 39.0469 316.609 39.5625C316.438 40.0703 316.352 40.6094 316.352 41.1797ZM330.32 35.3203V48H328.141V35.3203H330.32ZM327.977 31.957C327.977 31.6055 328.082 31.3086 328.293 31.0664C328.512 30.8242 328.832 30.7031 329.254 30.7031C329.668 30.7031 329.984 30.8242 330.203 31.0664C330.43 31.3086 330.543 31.6055 330.543 31.957C330.543 32.293 330.43 32.582 330.203 32.8242C329.984 33.0586 329.668 33.1758 329.254 33.1758C328.832 33.1758 328.512 33.0586 328.293 32.8242C328.082 32.582 327.977 32.293 327.977 31.957ZM335.98 30V48H333.801V30H335.98ZM343.727 35.3203L338.195 41.2383L335.102 44.4492L334.926 42.1406L337.141 39.4922L341.078 35.3203H343.727ZM341.746 48L337.223 41.9531L338.348 40.0195L344.301 48H341.746ZM348.133 38.0273V48H345.965V35.3203H348.016L348.133 38.0273ZM347.617 41.1797L346.715 41.1445C346.723 40.2773 346.852 39.4766 347.102 38.7422C347.352 38 347.703 37.3555 348.156 36.8086C348.609 36.2617 349.148 35.8398 349.773 35.543C350.406 35.2383 351.105 35.0859 351.871 35.0859C352.496 35.0859 353.059 35.1719 353.559 35.3438C354.059 35.5078 354.484 35.7734 354.836 36.1406C355.195 36.5078 355.469 36.9844 355.656 37.5703C355.844 38.1484 355.938 38.8555 355.938 39.6914V48H353.758V39.668C353.758 39.0039 353.66 38.4727 353.465 38.0742C353.27 37.668 352.984 37.375 352.609 37.1953C352.234 37.0078 351.773 36.9141 351.227 36.9141C350.688 36.9141 350.195 37.0273 349.75 37.2539C349.312 37.4805 348.934 37.793 348.613 38.1914C348.301 38.5898 348.055 39.0469 347.875 39.5625C347.703 40.0703 347.617 40.6094 347.617 41.1797ZM361.586 35.3203V48H359.406V35.3203H361.586ZM359.242 31.957C359.242 31.6055 359.348 31.3086 359.559 31.0664C359.777 30.8242 360.098 30.7031 360.52 30.7031C360.934 30.7031 361.25 30.8242 361.469 31.0664C361.695 31.3086 361.809 31.6055 361.809 31.957C361.809 32.293 361.695 32.582 361.469 32.8242C361.25 33.0586 360.934 33.1758 360.52 33.1758C360.098 33.1758 359.777 33.0586 359.559 32.8242C359.348 32.582 359.242 32.293 359.242 31.957ZM367.246 30V48H365.066V30H367.246ZM374.992 35.3203L369.461 41.2383L366.367 44.4492L366.191 42.1406L368.406 39.4922L372.344 35.3203H374.992ZM373.012 48L368.488 41.9531L369.613 40.0195L375.566 48H373.012Z" fill="white"/>
<rect x="1" y="20" width="40" height="40" rx="5" fill="#4E5C65" fill-opacity="0.4"/>
<rect x="1" y="20" width="40" height="40" rx="5" stroke="white" stroke-width="2"/>
<path d="M23.4902 32.7617H23.6465V34.2949H23.4902C22.5332 34.2949 21.7324 34.4512 21.0879 34.7637C20.4434 35.0697 19.9323 35.4831 19.5547 36.0039C19.1771 36.5182 18.9036 37.0977 18.7344 37.7422C18.5716 38.3867 18.4902 39.041 18.4902 39.7051V41.7949C18.4902 42.4264 18.5651 42.9863 18.7148 43.4746C18.8646 43.9564 19.0697 44.3633 19.3301 44.6953C19.5905 45.0273 19.8835 45.278 20.209 45.4473C20.541 45.6165 20.8861 45.7012 21.2441 45.7012C21.6608 45.7012 22.0319 45.623 22.3574 45.4668C22.6829 45.304 22.9564 45.0794 23.1777 44.793C23.4056 44.5 23.5781 44.1549 23.6953 43.7578C23.8125 43.3607 23.8711 42.9245 23.8711 42.4492C23.8711 42.026 23.819 41.6191 23.7148 41.2285C23.6107 40.8314 23.4512 40.4798 23.2363 40.1738C23.0215 39.8613 22.7513 39.6172 22.4258 39.4414C22.1068 39.2591 21.7259 39.168 21.2832 39.168C20.7819 39.168 20.3132 39.2917 19.877 39.5391C19.4473 39.7799 19.0924 40.099 18.8125 40.4961C18.5391 40.8867 18.3828 41.3132 18.3438 41.7754L17.3867 41.7656C17.4779 41.0365 17.6471 40.4147 17.8945 39.9004C18.1484 39.3796 18.4609 38.9564 18.832 38.6309C19.2096 38.2988 19.6296 38.0579 20.0918 37.9082C20.5605 37.752 21.0553 37.6738 21.5762 37.6738C22.2858 37.6738 22.8978 37.8073 23.4121 38.0742C23.9264 38.3411 24.3496 38.6992 24.6816 39.1484C25.0137 39.5911 25.2578 40.0924 25.4141 40.6523C25.5768 41.2057 25.6582 41.7754 25.6582 42.3613C25.6582 43.0319 25.5638 43.6602 25.375 44.2461C25.1862 44.832 24.903 45.3464 24.5254 45.7891C24.1543 46.2318 23.6953 46.5768 23.1484 46.8242C22.6016 47.0716 21.9668 47.1953 21.2441 47.1953C20.4759 47.1953 19.8053 47.0391 19.2324 46.7266C18.6595 46.4076 18.1842 45.9844 17.8066 45.457C17.429 44.9297 17.1458 44.3438 16.957 43.6992C16.7682 43.0547 16.6738 42.4004 16.6738 41.7363V40.8867C16.6738 39.8841 16.7747 38.901 16.9766 37.9375C17.1784 36.974 17.5267 36.1016 18.0215 35.3203C18.5228 34.5391 19.2161 33.9173 20.1016 33.4551C20.987 32.9928 22.1165 32.7617 23.4902 32.7617Z" fill="white"/>
<defs>
<clipPath id="clip0_352_1145">
<rect width="30" height="30" fill="white" transform="translate(90 25)"/>
</clipPath>
</defs>
</svg>

